# xmcd CD database file
# Copyright (C) 1993-1998 Ti Kan
#
# Track frame offsets:
# 	150
# 	12815
# 	26040
# 	39895
# 	63467
# 	73582
# 	84482
# 	96537
# 	109320
# 	130490
# 	156595
# 	177787
# 	187952
# 	201092
#
# Disc length: 2827 seconds
#
# Revision: 1
# Processed by: cddbd v1.4b41PL1 Copyright (c) Steve Scherf et al.
# Submitted via: DiscPlay 3.4.1
#
DISCID=c10b090e
DTITLE=Memphis Slim - I Am The Blues
DYEAR=1900
DGENRE=
TTITLE0=I Am The Blues
TTITLE1=Every Day I Have The Blues
TTITLE2=Broadway Boogie
TTITLE3=Rock Me Baby
TTITLE4=Little Lonely Girl
TTITLE5=Let's Get With It
TTITLE6=Sassy Mae
TTITLE7=Only Fools Have Fun
TTITLE8=Strollin' Thru The Park
TTITLE9=Freedom
TTITLE10=40 Years Or More
TTITLE11=All By Myself
TTITLE12=Ramble This Highway
TTITLE13=Ballin' The Jack
EXTD=
EXTT0=
EXTT1=
EXTT2=
EXTT3=
EXTT4=
EXTT5=
EXTT6=
EXTT7=
EXTT8=
EXTT9=
EXTT10=
EXTT11=
EXTT12=
EXTT13=
PLAYORDER=
